# xmcd
#
# Track frame offsets: 
#        150
#        25906
#        44980
#        69199
#        92684
#        116404
#        131407
#        148393
#        165382
#        185022
#        197695
#        217228
#        240892
#
# Disc length: 3505 seconds
#
# Revision: 1
# Processed by: cddbd v1.5.2PL0 Copyright (c) Steve Scherf et al.
# Submitted via: ExactAudioCopy v1.0b4
#
DISCID=bd0daf0d
DTITLE=John Hammond - 66 live
DYEAR=1966
DGENRE=Blues
TTITLE0=Who Do You Love?
TTITLE1=Got To Find My Baby
TTITLE2=Evil
TTITLE3=Bo Diddley
TTITLE4=44 Talkin' Blues
TTITLE5=Come Back Baby
TTITLE6=Friday Night Blues
TTITLE7=I Believe
TTITLE8=Sweet Little Angel
TTITLE9=You Got Me Walkin' And Talkin'
TTITLE10=Gamblers Blues
TTITLE11=You Don't Love Me No More
TTITLE12=The Hustler
EXTD=YEAR: 1966
EXTT0=
EXTT1=
EXTT2=
EXTT3=
EXTT4=
EXTT5=
EXTT6=
EXTT7=
EXTT8=
EXTT9=
EXTT10=
EXTT11=
EXTT12=
PLAYORDER=
